<?xml version="1.0" encoding="utf-8"?>
<!-- Generator: Adobe Illustrator 16.0.0, SVG Export Plug-In . SVG Version: 6.00 Build 0)  -->
<!DOCTYPE svg PUBLIC "-//W3C//DTD SVG 1.1//EN" "http://www.w3.org/Graphics/SVG/1.1/DTD/svg11.dtd">
<svg version="1.1" id="Layer_1" xmlns="http://www.w3.org/2000/svg" xmlns:xlink="http://www.w3.org/1999/xlink" x="0px" y="0px"
	 width="445.457px" height="207.915px" viewBox="0 0 445.457 207.915" enable-background="new 0 0 445.457 207.915"
	 xml:space="preserve">
<path fill="#133D8D" d="M86.605,95.242H65.533l10.536-36.333L86.605,95.242z M111.393,113.408L87.407,40.743H64.738l-23.993,72.665
	H111.393z"/>
<g>
	<defs>
		<rect id="SVGID_1_" width="445.457" height="207.915"/>
	</defs>
	<clipPath id="SVGID_2_">
		<use xlink:href="#SVGID_1_"  overflow="visible"/>
	</clipPath>
	<path clip-path="url(#SVGID_2_)" fill="#133D8D" d="M174.769,66.572c-5.926-25.787-31.635-25.828-40.888-25.828
		c-10.487,0-18.076,0.202-18.076,0.202v72.431h18.177c0,0,25.728,1.399,36.909-15.991l-13.207-23.025
		c0.095,0.92,0.178,1.854,0.178,2.887c0,20.545-23.913,17.882-23.913,17.882V58.986c3.314,0,15.789-1.32,21.275,7.586H174.769z"/>
	<path clip-path="url(#SVGID_2_)" fill="#133D8D" d="M203.121,104.924v8.484h18.489V72.691L203.121,104.924z M276.644,58.947V40.744
		h-92.12v18.203h18.597v7.625h18.489v-7.625H276.644z"/>
	<polygon clip-path="url(#SVGID_2_)" fill="#133D8D" points="272.775,86.261 272.775,68.1 230.371,68.1 230.371,113.409 
		276.927,113.409 276.927,95.169 248.795,95.169 248.795,86.261 	"/>
	<path clip-path="url(#SVGID_2_)" fill="#133D8D" d="M331.066,41.645c-4.075-1.581-8.502-0.901-13.136-0.901
		c-20.065,0-36.332,16.266-36.332,36.332c0,20.066,16.267,36.333,36.332,36.333c4.634,0,9.061-0.877,13.136-2.459V90.023
		c-3.395,3.225-8.047,5.219-13.186,5.219c-10.39,0-18.812-8.133-18.812-18.166c0-10.033,8.422-18.166,18.812-18.166
		c5.139,0,9.791,0.437,13.186,3.662V41.645z"/>
	<polygon clip-path="url(#SVGID_2_)" fill="#133D8D" points="386.438,40.671 386.438,68.104 358.618,68.104 358.618,40.671 
		340.15,40.671 340.15,113.336 358.618,113.336 358.618,86.31 386.438,86.31 386.438,113.336 404.713,113.336 404.713,40.671 	"/>
	<rect x="40.744" y="164.057" clip-path="url(#SVGID_2_)" fill="#133D8D" width="363.969" height="3.114"/>
	<path clip-path="url(#SVGID_2_)" fill="#E31B23" d="M168.87,73.02c0,0-2.516,0-1.314,2.21l20.429,37.552c0,0,1.203,2.21,2.405,0
		l20.429-37.552c0,0,1.203-2.21-1.313-2.21H168.87z"/>
	<rect x="40.744" y="124.75" clip-path="url(#SVGID_2_)" fill="#133D8D" width="363.969" height="3.114"/>
	<path clip-path="url(#SVGID_2_)" fill="#133D8D" d="M122.746,149.629v-4.979h11.426v10.202c-2.188,1.491-4.122,2.506-5.803,3.045
		c-1.681,0.538-3.675,0.807-5.982,0.807c-2.84,0-5.156-0.483-6.945-1.453c-1.791-0.968-3.177-2.409-4.162-4.324
		c-0.986-1.915-1.478-4.113-1.478-6.596c0-2.61,0.539-4.883,1.617-6.813c1.076-1.933,2.654-3.398,4.732-4.399
		c1.621-0.771,3.804-1.159,6.546-1.159c2.644,0,4.622,0.239,5.933,0.719c1.311,0.479,2.4,1.222,3.264,2.228
		c0.866,1.007,1.515,2.283,1.951,3.828l-7.133,1.272c-0.293-0.902-0.791-1.594-1.493-2.072c-0.702-0.479-1.597-0.718-2.685-0.718
		c-1.622,0-2.914,0.563-3.877,1.688c-0.963,1.126-1.444,2.909-1.444,5.346c0,2.591,0.487,4.44,1.46,5.551
		c0.974,1.108,2.332,1.665,4.073,1.665c0.827,0,1.616-0.12,2.366-0.359c0.752-0.24,1.612-0.648,2.58-1.226v-2.252H122.746z"/>
	<path clip-path="url(#SVGID_2_)" fill="#133D8D" d="M162.627,158.296v-23.928h12.324c2.286,0,4.032,0.194,5.24,0.588
		c1.208,0.391,2.181,1.118,2.922,2.178c0.739,1.062,1.109,2.354,1.109,3.877c0,1.327-0.283,2.474-0.85,3.437
		c-0.565,0.963-1.344,1.744-2.335,2.342c-0.631,0.381-1.497,0.697-2.596,0.947c0.881,0.294,1.522,0.588,1.925,0.882
		c0.271,0.195,0.666,0.615,1.182,1.258c0.517,0.643,0.861,1.138,1.035,1.487l3.581,6.933h-8.354l-3.952-7.312
		c-0.501-0.946-0.948-1.563-1.339-1.846c-0.533-0.369-1.137-0.555-1.812-0.555h-0.653v9.712H162.627z M170.054,144.063h3.118
		c0.337,0,0.99-0.107,1.958-0.325c0.49-0.099,0.89-0.35,1.2-0.751c0.31-0.402,0.465-0.865,0.465-1.389
		c0-0.771-0.244-1.364-0.734-1.778c-0.489-0.413-1.409-0.62-2.759-0.62h-3.248V144.063z"/>
	<path clip-path="url(#SVGID_2_)" fill="#133D8D" d="M210.997,146.349c0-3.906,1.089-6.947,3.265-9.124
		c2.177-2.178,5.207-3.266,9.092-3.266c3.981,0,7.051,1.069,9.206,3.207c2.153,2.14,3.23,5.135,3.23,8.986
		c0,2.796-0.47,5.09-1.412,6.88c-0.94,1.79-2.3,3.184-4.08,4.179c-1.778,0.995-3.997,1.493-6.65,1.493
		c-2.699,0-4.933-0.429-6.7-1.29c-1.769-0.858-3.202-2.22-4.301-4.08C211.547,151.474,210.997,149.146,210.997,146.349
		 M218.392,146.381c0,2.415,0.449,4.151,1.347,5.206c0.897,1.057,2.119,1.584,3.664,1.584c1.589,0,2.817-0.517,3.688-1.551
		c0.87-1.034,1.307-2.889,1.307-5.565c0-2.252-0.455-3.899-1.363-4.938c-0.909-1.039-2.141-1.558-3.698-1.558
		c-1.49,0-2.687,0.527-3.591,1.583C218.843,142.196,218.392,143.943,218.392,146.381"/>
	<path clip-path="url(#SVGID_2_)" fill="#133D8D" d="M279.313,134.367h7.379v14.257c0,1.414-0.222,2.749-0.661,4.005
		c-0.441,1.256-1.132,2.354-2.072,3.295c-0.942,0.939-1.93,1.601-2.963,1.98c-1.438,0.533-3.161,0.801-5.174,0.801
		c-1.165,0-2.437-0.082-3.813-0.245c-1.377-0.163-2.526-0.487-3.452-0.972c-0.925-0.482-1.771-1.171-2.538-2.062
		c-0.768-0.893-1.293-1.812-1.574-2.757c-0.457-1.523-0.687-2.871-0.687-4.046v-14.257h7.378v14.597
		c0,1.304,0.362,2.324,1.085,3.057c0.725,0.735,1.729,1.103,3.013,1.103c1.272,0,2.271-0.361,2.994-1.085
		c0.725-0.724,1.085-1.748,1.085-3.074V134.367z"/>
	<path clip-path="url(#SVGID_2_)" fill="#133D8D" d="M315.523,134.368h12.29c2.679,0,4.683,0.637,6.017,1.908
		c1.332,1.273,1.999,3.086,1.999,5.437c0,2.416-0.728,4.303-2.18,5.664c-1.453,1.36-3.67,2.04-6.65,2.04h-4.048v8.88h-7.428V134.368
		z M322.951,144.568h1.812c1.424,0,2.426-0.246,3.002-0.741c0.578-0.495,0.866-1.129,0.866-1.902c0-0.751-0.25-1.387-0.751-1.91
		c-0.5-0.521-1.442-0.783-2.824-0.783h-2.104V144.568z"/>
</g>
</svg>
